<svg width="70" height="61" viewBox="0 0 70 61" fill="none" xmlns="http://www.w3.org/2000/svg">
  <path d="M45.5244 46.8228C44.3842 48.744 43.8975 50.9817 44.1369 53.2017C44.3763 55.4217 45.3291 57.5048 46.8528 59.14H4.95272C3.1868 57.2195 2.20704 54.7079 2.20704 52.1016C2.20704 49.4952 3.1868 46.9837 4.95272 45.0632C3.1868 43.1427 2.20704 40.6311 2.20704 38.0247C2.20704 35.4184 3.1868 32.9068 4.95272 30.9863H46.8528C45.0652 32.896 44.0709 35.4116 44.0709 38.0247C44.0709 40.6379 45.0652 43.1535 46.8528 45.0632C46.347 45.5995 45.9015 46.1896 45.5244 46.8228Z" fill="#0540F2" />
  <path d="M5.76394 46.8227C4.57626 48.3271 3.93045 50.1865 3.93045 52.1016C3.93045 54.0166 4.57626 55.876 5.76394 57.3804H46.8529C47.3206 57.3804 47.7691 57.5658 48.0998 57.8957C48.4305 58.2257 48.6163 58.6733 48.6163 59.14C48.6163 59.6066 48.4305 60.0542 48.0998 60.3842C47.7691 60.7142 47.3206 60.8996 46.8529 60.8996H4.95274C4.71277 60.8996 4.47531 60.8508 4.25495 60.756C4.03459 60.6611 3.83597 60.5224 3.67129 60.3482C1.78985 58.2896 0.666963 55.6531 0.487467 52.8727C0.307972 50.0924 1.08257 47.3339 2.68374 45.0514C-0.0531711 40.975 -1.0654 35.3454 3.67129 29.7781C3.83601 29.6039 4.03464 29.4652 4.25499 29.3704C4.47534 29.2756 4.71278 29.2267 4.95274 29.2267H46.8529C47.3206 29.2267 47.7691 29.4121 48.0998 29.7421C48.4305 30.0721 48.6163 30.5196 48.6163 30.9863C48.6163 31.453 48.4305 31.9006 48.0998 32.2305C47.7691 32.5605 47.3206 32.7459 46.8529 32.7459H5.76394C4.57626 34.2503 3.93045 36.1097 3.93045 38.0247C3.93045 39.9398 4.57626 41.7992 5.76394 43.3035H46.8529C47.3206 43.3035 47.7691 43.4889 48.0998 43.8189C48.4305 44.1489 48.6163 44.5965 48.6163 45.0631C48.6163 45.5298 48.4305 45.9774 48.0998 46.3074C47.7691 46.6374 47.3206 46.8227 46.8529 46.8227H5.76394Z" fill="white" />
  <path opacity="0.1" d="M37.7651 34.7049L15.7217 42.8695C15.4284 42.9755 15.1052 42.9624 14.8215 42.833C14.5379 42.7035 14.3165 42.4681 14.2051 42.1774C13.2799 39.6846 10.2702 31.5846 9.3967 29.2267H36.9774L38.2941 32.7459C38.6586 33.4685 38.6316 34.3765 37.7651 34.7049Z" fill="#00FF47" />
  <path d="M25.9075 0.464964L3.86177 8.62298C3.253 8.84826 2.94251 9.52331 3.16829 10.1308L14.2058 39.8272C14.4316 40.4346 15.1081 40.7444 15.7169 40.5191L37.7626 32.3611C38.3714 32.1358 38.6819 31.4608 38.4561 30.8533L27.4186 1.15693C27.1928 0.549489 26.5163 0.239686 25.9075 0.464964Z" fill="white" />
  <path d="M10.1421 13.6507C9.88774 13.6072 9.65466 13.4818 9.47836 13.2938C9.30206 13.1058 9.19222 12.8655 9.16558 12.6094C9.13894 12.3533 9.19697 12.0955 9.33082 11.8754C9.46467 11.6553 9.66699 11.4849 9.90693 11.3902L17.6215 8.53493C17.914 8.42666 18.2376 8.43875 18.5211 8.56855C18.8047 8.69834 19.0249 8.93521 19.1334 9.22704C19.2419 9.51886 19.2298 9.84175 19.0997 10.1247C18.9697 10.4076 18.7323 10.6273 18.4398 10.7356L10.724 13.5897C10.5382 13.6582 10.338 13.68 10.1421 13.6507ZM12.1865 19.15C11.9321 19.1067 11.6989 18.9815 11.5225 18.7936C11.346 18.6057 11.236 18.3653 11.2093 18.1092C11.1825 17.8531 11.2404 17.5952 11.3742 17.375C11.508 17.1548 11.7103 16.9843 11.9502 16.8895L19.666 14.0343C19.9568 13.9328 20.2759 13.9492 20.5546 14.08C20.8334 14.2108 21.0496 14.4456 21.1566 14.7338C21.2637 15.022 21.2531 15.3407 21.1272 15.6212C21.0012 15.9017 20.7699 16.1217 20.4831 16.2338L12.7685 19.0902C12.5826 19.1587 12.3825 19.1793 12.1865 19.15ZM14.2298 24.6494C13.9755 24.6059 13.7424 24.4805 13.5661 24.2925C13.3898 24.1045 13.2799 23.8642 13.2533 23.6081C13.2267 23.352 13.2847 23.0942 13.4186 22.8741C13.5524 22.654 13.7547 22.4836 13.9947 22.3889L21.7104 19.5336C22.0029 19.4255 22.3265 19.4377 22.6099 19.5677C22.8933 19.6976 23.1134 19.9345 23.2217 20.2263C23.3301 20.5181 23.3178 20.841 23.1876 21.1238C23.0574 21.4066 22.82 21.6262 22.5275 21.7343L14.8117 24.5884C14.626 24.6573 14.4258 24.6783 14.2298 24.6494Z" fill="#0540F2" />
  <path opacity="0.1" d="M45.5244 46.8227C43.9173 49.9548 43.1719 52.8406 45.5362 57.3804H46.8529C47.2654 57.3784 47.6652 57.5222 47.9815 57.7863C48.2979 58.0505 48.5103 58.4178 48.5811 58.8232C45.0306 57.8731 35.8182 55.4061 32.1338 54.4242C31.8353 54.3449 31.5555 54.2075 31.3105 54.02C31.0654 53.8324 30.86 53.5983 30.7059 53.3312C30.5519 53.0641 30.4523 52.7692 30.4128 52.4636C30.3734 52.158 30.3949 51.8475 30.4761 51.5502L31.7458 46.8227C32.9391 42.371 35.2598 33.6726 36.4719 29.2267H46.8529C47.3206 29.2267 47.7691 29.4121 48.0999 29.7421C48.4306 30.0721 48.6164 30.5196 48.6164 30.9863C48.6164 31.453 48.4306 31.9006 48.0999 32.2305C47.7691 32.5605 47.3206 32.7459 46.8529 32.7459H45.5244C43.9173 35.878 43.1719 38.7638 45.5362 43.3035H46.8529C47.3206 43.3035 47.7691 43.4889 48.0999 43.8189C48.4306 44.1489 48.6164 44.5965 48.6164 45.0631C48.6164 45.5298 48.4306 45.9774 48.0999 46.3074C47.7691 46.6374 47.3206 46.8227 46.8529 46.8227H45.5244Z" fill="#00FF47" />
  <path d="M67.6854 23.9327L41.5672 16.9494C41.2688 16.8696 40.9576 16.8492 40.6514 16.8894C40.3451 16.9297 40.0498 17.0297 39.7823 17.1839C39.5149 17.338 39.2804 17.5432 39.0925 17.7878C38.9045 18.0324 38.7667 18.3115 38.6868 18.6093L37.1656 24.2752L30.4714 49.2029C30.3914 49.5005 30.3709 49.811 30.4112 50.1165C30.4514 50.422 30.5516 50.7166 30.706 50.9835C30.8603 51.2504 31.0659 51.4843 31.3109 51.6719C31.5559 51.8595 31.8355 51.9972 32.1338 52.0769L58.2532 59.059C58.8554 59.2199 59.497 59.1356 60.0369 58.8245C60.5769 58.5135 60.9709 58.0012 61.1323 57.4003L67.8265 32.4726L69.3478 26.8067C69.4278 26.5091 69.4482 26.1986 69.408 25.8931C69.3678 25.5876 69.2676 25.293 69.1132 25.0261C68.9588 24.7592 68.7533 24.5253 68.5083 24.3377C68.2633 24.15 67.9837 24.0124 67.6854 23.9327Z" fill="white" />
  <path d="M66.7766 27.3334L65.8596 30.7341C65.7786 31.0342 65.5816 31.29 65.3118 31.4452C65.042 31.6005 64.7215 31.6426 64.4206 31.5623L40.5785 25.189C40.2773 25.1087 40.0204 24.9123 39.8643 24.6431C39.7082 24.3738 39.6657 24.0537 39.7461 23.7532L40.6561 20.3536C40.6959 20.2047 40.7648 20.0651 40.8587 19.9427C40.9527 19.8204 41.0699 19.7177 41.2036 19.6406C41.3374 19.5634 41.4851 19.5133 41.6382 19.4932C41.7914 19.473 41.947 19.4832 42.0962 19.5231L65.9454 25.8964C66.0946 25.9363 66.2344 26.0051 66.3569 26.0989C66.4794 26.1927 66.5822 26.3096 66.6593 26.4431C66.7365 26.5765 66.7866 26.7238 66.8067 26.8766C66.8269 27.0294 66.8166 27.1846 66.7766 27.3334Z" fill="#0540F2" />
  <path opacity="0.1" d="M52.5231 38.054C52.2325 39.1359 52.3845 40.2887 52.9457 41.2588C53.5069 42.2288 54.4314 42.9367 55.5157 43.2267C56.6 43.5166 57.7553 43.3649 58.7275 42.8049C59.6997 42.245 60.4091 41.3225 60.6997 40.2406C60.9903 39.1587 60.8383 38.0059 60.277 37.0359C59.7158 36.0658 58.7914 35.3579 57.7071 35.068C56.6228 34.778 55.4675 34.9297 54.4953 35.4897C53.5231 36.0497 52.8137 36.9721 52.5231 38.054ZM40.0318 34.7143C39.7412 35.7962 39.8932 36.949 40.4544 37.9191C41.0157 38.8891 41.9401 39.597 43.0244 39.8869C44.1087 40.1769 45.264 40.0252 46.2362 39.4652C47.2084 38.9052 47.9178 37.9828 48.2084 36.9009C48.3523 36.3652 48.389 35.8065 48.3165 35.2566C48.244 34.7067 48.0637 34.1765 47.7858 33.6961C47.5079 33.2158 47.1379 32.7948 46.6969 32.4572C46.256 32.1195 45.7527 31.8718 45.2158 31.7283C44.6789 31.5847 44.119 31.548 43.5679 31.6204C43.0168 31.6928 42.4854 31.8727 42.004 32.15C41.0318 32.71 40.3224 33.6324 40.0318 34.7143ZM49.4805 49.3859C49.19 50.4678 49.3422 51.6205 49.9036 52.5905C50.4649 53.5604 51.3894 54.2681 52.4737 54.5579C53.558 54.8477 54.7132 54.6959 55.6853 54.1358C56.6574 53.5757 57.3667 52.6532 57.6571 51.5713C57.9476 50.4894 57.7954 49.3367 57.234 48.3667C56.6727 47.3968 55.7482 46.689 54.6639 46.3992C53.5796 46.1094 52.4244 46.2613 51.4523 46.8214C50.4802 47.3815 49.7709 48.304 49.4805 49.3859ZM36.9892 46.0461C36.6988 47.1281 36.8509 48.2808 37.4123 49.2507C37.9736 50.2207 38.8981 50.9284 39.9824 51.2182C41.0667 51.508 42.222 51.3562 43.194 50.7961C44.1661 50.236 44.8754 49.3135 45.1658 48.2316C45.3097 47.6959 45.3463 47.1371 45.2737 46.5873C45.2011 46.0375 45.0207 45.5073 44.7428 45.027C44.4648 44.5467 44.0948 44.1258 43.6538 43.7882C43.2128 43.4506 42.7095 43.203 42.1726 43.0595C41.6358 42.916 41.0758 42.8794 40.5247 42.9519C39.9737 43.0243 39.4423 43.2043 38.961 43.4817C38.4797 43.759 38.0578 44.1282 37.7195 44.5682C37.3812 45.0082 37.133 45.5104 36.9892 46.0461Z" fill="#00FF47" />
  <path d="M52.5231 36.881C52.2325 37.9629 52.3845 39.1157 52.9457 40.0857C53.5069 41.0558 54.4314 41.7636 55.5157 42.0536C56.6 42.3436 57.7553 42.1919 58.7275 41.6319C59.6997 41.0719 60.4091 40.1495 60.6997 39.0676C60.9903 37.9857 60.8383 36.8329 60.277 35.8628C59.7158 34.8928 58.7914 34.1849 57.7071 33.8949C56.6228 33.605 55.4675 33.7567 54.4953 34.3167C53.5231 34.8766 52.8137 35.7991 52.5231 36.881ZM40.0318 33.5412C39.7412 34.6231 39.8932 35.7759 40.4544 36.746C41.0157 37.7161 41.9401 38.4239 43.0244 38.7139C44.1087 39.0038 45.264 38.8521 46.2362 38.2922C47.2084 37.7322 47.9178 36.8097 48.2084 35.7278C48.3523 35.1921 48.389 34.6334 48.3165 34.0835C48.244 33.5336 48.0637 33.0034 47.7858 32.5231C47.5079 32.0428 47.1379 31.6218 46.6969 31.2841C46.256 30.9464 45.7527 30.6988 45.2158 30.5552C44.6789 30.4116 44.119 30.375 43.5679 30.4473C43.0168 30.5197 42.4854 30.6996 42.004 30.9769C41.0318 31.5369 40.3224 32.4593 40.0318 33.5412ZM49.4805 48.2128C49.19 49.2947 49.3422 50.4474 49.9036 51.4174C50.4649 52.3873 51.3894 53.0951 52.4737 53.3849C53.558 53.6747 54.7132 53.5228 55.6853 52.9627C56.6574 52.4026 57.3667 51.4801 57.6571 50.3982C57.9476 49.3163 57.7954 48.1636 57.234 47.1937C56.6727 46.2237 55.7482 45.516 54.6639 45.2262C53.5796 44.9364 52.4244 45.0882 51.4523 45.6483C50.4802 46.2084 49.7709 47.1309 49.4805 48.2128ZM36.9892 44.8731C36.6988 45.955 36.8509 47.1077 37.4123 48.0777C37.9736 49.0476 38.8981 49.7553 39.9824 50.0451C41.0667 50.3349 42.222 50.1831 43.194 49.623C44.1661 49.0629 44.8754 48.1404 45.1658 47.0585C45.3097 46.5228 45.3463 45.9641 45.2737 45.4142C45.2011 44.8644 45.0207 44.3342 44.7428 43.8539C44.4648 43.3737 44.0948 42.9527 43.6538 42.6151C43.2128 42.2776 42.7095 42.0299 42.1726 41.8865C41.6358 41.743 41.0758 41.7064 40.5247 41.7788C39.9737 41.8512 39.4423 42.0313 38.961 42.3086C38.4797 42.5859 38.0578 42.9551 37.7195 43.3952C37.3812 43.8352 37.133 44.3374 36.9892 44.8731Z" fill="white" />
  <path d="M45.9217 34.7906L44.8342 34.3448C44.9789 33.8451 45.7477 32.8198 44.9612 32.4949C44.1735 32.1735 43.996 33.4451 43.7468 33.899C43.2471 33.7559 42.2184 32.9887 41.8928 33.7735C41.5706 34.5595 42.8451 34.7366 43.3 34.9841C43.1566 35.4838 42.3877 36.5091 43.1742 36.8352C43.9619 37.1555 44.1394 35.885 44.3875 35.4299L45.475 35.8757C45.6192 35.9348 45.781 35.9343 45.9249 35.8743C46.0687 35.8144 46.1828 35.6999 46.2421 35.556C46.3013 35.4121 46.3009 35.2506 46.2408 35.1071C46.1807 34.9635 46.0659 34.8497 45.9217 34.7906ZM57.9886 39.1321L54.7262 37.7948C54.582 37.7357 54.4672 37.6218 54.4071 37.4783C54.347 37.3347 54.3466 37.1733 54.4058 37.0294C54.465 36.8855 54.5791 36.771 54.723 36.711C54.8669 36.6511 55.0287 36.6506 55.1729 36.7097L58.4353 38.047C58.5795 38.1061 58.6943 38.22 58.7544 38.3635C58.8145 38.5071 58.8149 38.6685 58.7557 38.8124C58.6965 38.9563 58.5824 39.0708 58.4385 39.1308C58.2946 39.1907 58.1328 39.1912 57.9886 39.1321ZM41.8704 46.3312C42.3254 46.079 43.5951 45.8972 43.2695 45.1112C42.9403 44.3288 41.9139 45.103 41.4166 45.2485C41.1639 44.7933 40.9817 43.5264 40.194 43.8513C39.4098 44.1798 40.1857 45.2039 40.3315 45.7001C39.8754 45.9523 38.6057 46.1341 38.9313 46.9201C39.2605 47.7025 40.2868 46.9283 40.7841 46.7829C41.0369 47.238 41.2191 48.5049 42.0068 48.1811C42.791 47.8527 42.0162 46.8274 41.8704 46.3312ZM55.0212 50.4839L51.7588 49.1466C51.6146 49.0875 51.4998 48.9736 51.4398 48.8301C51.3797 48.6865 51.3792 48.525 51.4385 48.3812C51.4977 48.2373 51.6118 48.1227 51.7557 48.0628C51.8995 48.0028 52.0614 48.0024 52.2056 48.0615L55.468 49.3988C55.6122 49.4579 55.727 49.5718 55.7871 49.7153C55.8471 49.8588 55.8476 50.0203 55.7884 50.1642C55.7291 50.3081 55.615 50.4226 55.4712 50.4826C55.3273 50.5425 55.1655 50.543 55.0212 50.4839ZM53.7398 47.4222C53.7691 47.3509 53.8122 47.2861 53.8667 47.2315C53.9211 47.1769 53.9858 47.1335 54.057 47.1038C54.1282 47.0741 54.2046 47.0587 54.2818 47.0585C54.359 47.0583 54.4355 47.0732 54.5069 47.1025C54.5783 47.1318 54.6432 47.1748 54.698 47.2291C54.7527 47.2834 54.7962 47.3479 54.826 47.419C54.8557 47.4901 54.8711 47.5663 54.8714 47.6433C54.8716 47.7204 54.8566 47.7967 54.8273 47.8679C54.7979 47.9392 54.7548 48.004 54.7004 48.0586C54.646 48.1132 54.5813 48.1566 54.5101 48.1863C54.4388 48.216 54.3624 48.2314 54.2852 48.2316C54.208 48.2318 54.1316 48.2169 54.0602 48.1876C53.9887 48.1583 53.9238 48.1153 53.8691 48.061C53.8143 48.0067 53.7708 47.9422 53.7411 47.8711C53.7114 47.8 53.6959 47.7238 53.6957 47.6468C53.6955 47.5697 53.7105 47.4934 53.7398 47.4222ZM52.3996 50.6774C52.4588 50.5334 52.573 50.4187 52.7169 50.3587C52.8609 50.2986 53.0229 50.2981 53.1673 50.3572C53.3116 50.4163 53.4265 50.5302 53.4867 50.6739C53.5469 50.8175 53.5474 50.9792 53.4882 51.1232C53.4589 51.1944 53.4158 51.2592 53.3613 51.3139C53.3069 51.3685 53.2422 51.4119 53.171 51.4416C53.0998 51.4712 53.0234 51.4866 52.9462 51.4869C52.869 51.4871 52.7925 51.4721 52.7211 51.4429C52.6497 51.4136 52.5848 51.3706 52.53 51.3163C52.4753 51.262 52.4318 51.1974 52.402 51.1264C52.3723 51.0553 52.3569 50.979 52.3566 50.902C52.3564 50.825 52.3702 50.7487 52.3996 50.6774Z" fill="#0540F2" />
</svg>