<svg width="20" height="20" viewBox="0 0 20 20" fill="none" xmlns="http://www.w3.org/2000/svg">
<g id="caret-up">
<path id="Icon color" d="M13.45 10.7834C13.5289 10.8616 13.5733 10.9681 13.5733 11.0792C13.5733 11.1903 13.5289 11.2968 13.45 11.375L13.2833 11.5417C13.2049 11.6231 13.0963 11.6683 12.9833 11.6667H7.01667C6.90369 11.6683 6.79507 11.6231 6.71667 11.5417L6.55001 11.375C6.47113 11.2968 6.42676 11.1903 6.42676 11.0792C6.42676 10.9681 6.47113 10.8616 6.55001 10.7834L9.70834 7.62504C9.78395 7.54448 9.88952 7.49878 10 7.49878C10.1105 7.49878 10.2161 7.54448 10.2917 7.62504L13.45 10.7834Z" fill="#0A1129" fill-opacity="0.3"/>
</g>
</svg>
