<svg width="20" height="20" viewBox="0 0 20 20" fill="none" xmlns="http://www.w3.org/2000/svg">
<g id="caret-down">
<path id="Icon color" d="M6.55001 9.21663C6.47113 9.13839 6.42676 9.03189 6.42676 8.92079C6.42676 8.8097 6.47113 8.7032 6.55001 8.62496L6.71667 8.45829C6.79507 8.37691 6.90369 8.33166 7.01667 8.33329H12.9833C13.0963 8.33166 13.2049 8.37691 13.2833 8.45829L13.45 8.62496C13.5289 8.7032 13.5733 8.8097 13.5733 8.92079C13.5733 9.03189 13.5289 9.13839 13.45 9.21663L10.2917 12.375C10.2161 12.4555 10.1105 12.5012 10 12.5012C9.88952 12.5012 9.78395 12.4555 9.70834 12.375L6.55001 9.21663Z" fill="#797D80"/>
</g>
</svg>
