<svg width="20" height="20" viewBox="0 0 20 20" fill="none" xmlns="http://www.w3.org/2000/svg">
<path  fill-rule="evenodd" clip-rule="evenodd" d="M9.99984 1.66675C5.39746 1.66675 1.6665 5.39771 1.6665 10.0001C1.6665 14.6025 5.39746 18.3334 9.99984 18.3334C14.6022 18.3334 18.3332 14.6025 18.3332 10.0001C18.3332 5.39771 14.6022 1.66675 9.99984 1.66675ZM14.1245 8.16306C14.4499 7.83762 14.4499 7.30998 14.1245 6.98455C13.7991 6.65911 13.2714 6.65911 12.946 6.98455L8.8212 11.1093L7.05343 9.34157C6.728 9.01613 6.20036 9.01613 5.87492 9.34157C5.54948 9.66701 5.54949 10.1946 5.87492 10.5201L8.17302 12.8182C8.531 13.1762 9.1114 13.1762 9.46938 12.8182L14.1245 8.16306Z" fill="#008756"/>
</svg>
