<svg width="69" height="55" viewBox="0 0 69 55" fill="none" xmlns="http://www.w3.org/2000/svg">
  <path d="M65.9542 16.4995H29.8014V51.5119H65.9542V16.4995Z" fill="#0540F2" />
  <path d="M38.3079 1.64569H2.15509V36.6582H38.3079V1.64569Z" fill="#0540F2" />
  <path d="M29.8014 51.512L38.3079 36.6582H29.8014V51.512Z" fill="#0540F2" />
  <path opacity="0.1" d="M27.6747 17.03C28.2387 17.03 28.7796 16.8064 29.1785 16.4084C29.5773 16.0105 29.8013 15.4708 29.8013 14.908C29.8013 14.3452 29.5773 13.8055 29.1785 13.4075C28.7796 13.0096 28.2387 12.786 27.6747 12.786H20.2315V10.6641C20.2315 10.1013 20.0074 9.56154 19.6086 9.16359C19.2098 8.76565 18.6689 8.54208 18.1049 8.54208C17.5408 8.54208 16.9999 8.76565 16.6011 9.16359C16.2023 9.56154 15.9782 10.1013 15.9782 10.6641V12.786H8.53499C7.97097 12.786 7.43005 13.0096 7.03123 13.4075C6.63241 13.8055 6.40836 14.3452 6.40836 14.908C6.40836 15.4708 6.63241 16.0105 7.03123 16.4084C7.43005 16.8064 7.97097 17.03 8.53499 17.03H21.7159C20.9609 19.2165 19.7318 21.21 18.1162 22.8682C17.0543 21.7984 16.1624 20.573 15.4715 19.2343C15.2114 18.735 14.7631 18.3592 14.2254 18.1897C13.6876 18.0202 13.1044 18.0707 12.604 18.3303C12.1036 18.5898 11.727 19.0371 11.5571 19.5737C11.3872 20.1103 11.4378 20.6922 11.6979 21.1915C12.4711 22.6905 13.4342 24.084 14.5636 25.3378C12.6693 26.1869 10.6113 26.6106 8.53499 26.5788C7.97097 26.5788 7.43005 26.8024 7.03123 27.2003C6.63241 27.5983 6.40836 28.138 6.40836 28.7008C6.40836 29.2636 6.63241 29.8033 7.03123 30.2012C7.43005 30.5992 7.97097 30.8228 8.53499 30.8228C11.8917 30.8863 15.1979 30.0013 18.0721 28.27C20.9646 30.0145 24.2957 30.9 27.6747 30.8228C28.2387 30.8228 28.7796 30.5992 29.1785 30.2012C29.5773 29.8033 29.8013 29.2636 29.8013 28.7008C29.8013 28.138 29.5773 27.5983 29.1785 27.2003C28.7796 26.8024 28.2387 26.5788 27.6747 26.5788C25.5889 26.6081 23.522 26.1811 21.6193 25.3278C23.7783 22.9609 25.3445 20.1173 26.1897 17.03H27.6747Z" fill="#0540F2" />
  <path opacity="0.1" d="M65.8797 16.4995H40.509C40.4575 16.6715 40.4324 16.8504 40.4345 17.03C40.4362 17.5922 40.6608 18.131 41.0592 18.5286C41.4577 18.9262 41.9977 19.1503 42.5612 19.1519H61.7009V49.9205H31.3432L38.0314 38.239C38.2022 37.9144 38.2968 37.5552 38.3079 37.1887V2.17618C38.31 1.99662 38.2849 1.81777 38.2335 1.64569H2.15509V4.29815H34.0546V35.0667H2.15509V36.6582H29.8014V39.3106H32.5128L29.8014 44.0532V51.512H65.9542V17.03C65.9563 16.8504 65.9312 16.6715 65.8797 16.4995Z" fill="#0540F2" />
  <path opacity="0.1" d="M50.0044 28.7008C48.031 28.7029 46.139 29.4861 44.7436 30.8784C43.3482 32.2708 42.5633 34.1586 42.5612 36.1277V43.5546C42.5612 44.1173 42.7852 44.6571 43.184 45.055C43.5829 45.453 44.1238 45.6765 44.6878 45.6765C45.2518 45.6765 45.7927 45.453 46.1916 45.055C46.5904 44.6571 46.8144 44.1173 46.8144 43.5546V41.4326H53.1943V43.5546C53.1943 44.1173 53.4184 44.6571 53.8172 45.055C54.216 45.453 54.757 45.6765 55.321 45.6765C55.885 45.6765 56.4259 45.453 56.8247 45.055C57.2236 44.6571 57.4476 44.1173 57.4476 43.5546V36.1277C57.4454 34.1586 56.6606 32.2708 55.2651 30.8784C53.8697 29.4861 51.9778 28.7029 50.0044 28.7008ZM53.1943 37.1886H46.8144V36.1277C46.8144 35.2835 47.1505 34.4739 47.7487 33.877C48.347 33.2801 49.1584 32.9447 50.0044 32.9447C50.8504 32.9447 51.6618 33.2801 52.26 33.877C52.8583 34.4739 53.1943 35.2835 53.1943 36.1277V37.1886Z" fill="#0540F2" />
  <path opacity="0.1" d="M50.0044 26.5788C51.1789 26.5788 52.131 25.6288 52.131 24.4568C52.131 23.2849 51.1789 22.3349 50.0044 22.3349C48.8299 22.3349 47.8777 23.2849 47.8777 24.4568C47.8777 25.6288 48.8299 26.5788 50.0044 26.5788Z" fill="#0540F2" />
  <path d="M29.8014 30.8228C30.3654 30.8228 30.9063 30.5992 31.3051 30.2012C31.7039 29.8033 31.928 29.2636 31.928 28.7008C31.928 28.138 31.7039 27.5983 31.3051 27.2003C30.9063 26.8024 30.3654 26.5788 29.8014 26.5788C27.7156 26.6081 25.6486 26.1811 23.746 25.3278C25.9049 22.9609 27.4712 20.1173 28.3163 17.03H29.8014C30.3654 17.03 30.9063 16.8064 31.3051 16.4084C31.7039 16.0105 31.928 15.4708 31.928 14.908C31.928 14.3452 31.7039 13.8055 31.3051 13.4075C30.9063 13.0096 30.3654 12.786 29.8014 12.786H22.3581V10.6641C22.3581 10.1013 22.1341 9.56154 21.7353 9.16359C21.3364 8.76565 20.7955 8.54208 20.2315 8.54208C19.6675 8.54208 19.1266 8.76565 18.7277 9.16359C18.3289 9.56154 18.1049 10.1013 18.1049 10.6641V12.786H10.6616C10.0976 12.786 9.5567 13.0096 9.15788 13.4075C8.75906 13.8055 8.535 14.3452 8.535 14.908C8.535 15.4708 8.75906 16.0105 9.15788 16.4084C9.5567 16.8064 10.0976 17.03 10.6616 17.03H23.8425C23.0876 19.2165 21.8585 21.21 20.2429 22.8682C19.1809 21.7984 18.289 20.573 17.5981 19.2343C17.4696 18.9866 17.2935 18.7665 17.0796 18.5868C16.8658 18.407 16.6186 18.2711 16.3521 18.1868C16.0855 18.1025 15.805 18.0715 15.5264 18.0955C15.2479 18.1195 14.9768 18.1981 14.7287 18.3268C14.4807 18.4554 14.2605 18.6317 14.0807 18.8454C13.901 19.059 13.7652 19.306 13.6813 19.5721C13.5973 19.8382 13.5667 20.1182 13.5913 20.3961C13.6159 20.674 13.6952 20.9443 13.8246 21.1916C14.5977 22.6906 15.5608 24.0841 16.6902 25.3379C14.796 26.187 12.738 26.6106 10.6616 26.5788C10.0976 26.5788 9.5567 26.8024 9.15788 27.2003C8.75906 27.5983 8.535 28.138 8.535 28.7008C8.535 29.2636 8.75906 29.8033 9.15788 30.2012C9.5567 30.5992 10.0976 30.8228 10.6616 30.8228C14.0183 30.8863 17.3246 30.0013 20.1987 28.27C23.0913 30.0145 26.4223 30.9 29.8014 30.8228Z" fill="white" />
  <path d="M65.9542 14.908H44.6878C44.1238 14.908 43.5829 15.1315 43.1841 15.5295C42.7852 15.9274 42.5612 16.4672 42.5612 17.0299C42.5612 17.5927 42.7852 18.1325 43.1841 18.5304C43.5829 18.9284 44.1238 19.1519 44.6878 19.1519H63.8275V49.9205H33.4657L40.1542 38.2413C40.3255 37.9159 40.4214 37.5561 40.4346 37.1886V2.17617C40.4345 1.6134 40.2105 1.07368 39.8116 0.675741C39.4128 0.277801 38.8719 0.0542274 38.3079 0.0541992H2.15511C1.5911 0.0542274 1.0502 0.277801 0.651381 0.675741C0.252566 1.07368 0.0285011 1.6134 0.0284729 2.17617L0.0284729 37.1886C0.0285011 37.7514 0.252566 38.2911 0.651381 38.6891C1.0502 39.087 1.5911 39.3106 2.15511 39.3106H27.6747V52.0424C27.6836 52.6028 27.9107 53.1377 28.3081 53.5338C28.7054 53.9299 29.2417 54.1561 29.8033 54.1644H65.9542C66.5182 54.1644 67.0591 53.9408 67.4579 53.5429C67.8567 53.1449 68.0808 52.6052 68.0808 52.0424V17.0299C68.0808 16.4672 67.8567 15.9275 67.4579 15.5295C67.0591 15.1316 66.5182 14.908 65.9542 14.908ZM4.28174 4.29814H36.1813V35.0667H4.28174V4.29814ZM34.6435 39.3106L31.928 44.0524V39.3106H34.6435Z" fill="white" />
  <path d="M44.6878 36.1277V43.5546C44.6878 44.1173 44.9119 44.6571 45.3107 45.055C45.7095 45.453 46.2504 45.6765 46.8144 45.6765C47.3785 45.6765 47.9194 45.453 48.3182 45.055C48.717 44.6571 48.9411 44.1173 48.9411 43.5546V41.4326H55.321V43.5546C55.321 44.1173 55.545 44.6571 55.9439 45.055C56.3427 45.453 56.8836 45.6765 57.4476 45.6765C58.0116 45.6765 58.5526 45.453 58.9514 45.055C59.3502 44.6571 59.5743 44.1173 59.5743 43.5546V36.1277C59.5743 34.1579 58.7901 32.2689 57.3942 30.8761C55.9983 29.4832 54.1051 28.7008 52.131 28.7008C50.157 28.7008 48.2637 29.4832 46.8679 30.8761C45.472 32.2689 44.6878 34.1579 44.6878 36.1277ZM52.131 32.9447C52.9768 32.9456 53.7876 33.2813 54.3856 33.878C54.9837 34.4747 55.3201 35.2838 55.321 36.1277V37.1886H48.9411V36.1277C48.942 35.2838 49.2784 34.4747 49.8764 33.878C50.4744 33.2813 51.2853 32.9456 52.131 32.9447Z" fill="white" />
  <path d="M52.131 26.5788C53.3055 26.5788 54.2577 25.6288 54.2577 24.4568C54.2577 23.2849 53.3055 22.3349 52.131 22.3349C50.9565 22.3349 50.0044 23.2849 50.0044 24.4568C50.0044 25.6288 50.9565 26.5788 52.131 26.5788Z" fill="white" />
</svg>