<svg width="70" height="53" viewBox="0 0 70 53" fill="none" xmlns="http://www.w3.org/2000/svg">
  <path d="M40.4037 41.5286C39.6519 43.7936 35.7217 44.7663 31.624 43.701C27.5263 42.6375 24.8142 39.9417 25.5659 37.675C26.3177 35.4099 30.2498 34.4373 34.3456 35.5042C38.4452 36.566 41.1573 39.2619 40.4037 41.5286ZM34.9813 0.389427C16.0611 0.389427 0.72287 12.0141 0.72287 26.3515C0.72287 28.147 0.964582 29.8988 1.42136 31.59C4.80724 36.7394 7.15013 33.4882 17.8521 28.7562C28.752 23.9367 17.8521 35.4874 14.0456 42.2185C12.8751 44.29 13.5108 46.0418 15.1114 47.4755C20.7184 50.5113 27.5663 52.3152 34.9813 52.3152C53.9034 52.3152 69.2397 40.6922 69.2397 26.3515C69.2397 12.0141 53.9034 0.389427 34.9813 0.389427Z" fill="white" />
  <path d="M25.4651 13.6111C25.4651 14.2741 25.3174 14.9305 25.0304 15.543C24.7435 16.1555 24.3229 16.7121 23.7927 17.1809C23.2625 17.6496 22.6331 18.0215 21.9404 18.2752C21.2476 18.5289 20.5051 18.6595 19.7553 18.6595C19.0055 18.6595 18.263 18.5289 17.5703 18.2752C16.8776 18.0215 16.2481 17.6496 15.7179 17.1809C15.1877 16.7121 14.7672 16.1555 14.4802 15.543C14.1933 14.9305 14.0456 14.2741 14.0456 13.6111C14.0456 12.2722 14.6472 10.9881 15.7179 10.0414C16.7887 9.09463 18.241 8.56275 19.7553 8.56275C21.2696 8.56275 22.7219 9.09463 23.7927 10.0414C24.8635 10.9881 25.4651 12.2722 25.4651 13.6111Z" fill="#0540F2" />
  <path d="M44.4975 10.2455C44.4975 11.5844 43.896 12.8685 42.8252 13.8153C41.7544 14.762 40.3021 15.2939 38.7878 15.2939C37.2735 15.2939 35.8212 14.762 34.7504 13.8153C33.6796 12.8685 33.0781 11.5844 33.0781 10.2455C33.0781 8.90661 33.6796 7.62253 34.7504 6.67578C35.8212 5.72903 37.2735 5.19715 38.7878 5.19715C40.3021 5.19715 41.7544 5.72903 42.8252 6.67578C43.896 7.62253 44.4975 8.90661 44.4975 10.2455Z" fill="#0540F2" />
  <path d="M61.6268 20.3423C61.6268 21.6812 61.0252 22.9652 59.9544 23.912C58.8836 24.8587 57.4313 25.3906 55.917 25.3906C54.4027 25.3906 52.9504 24.8587 51.8796 23.912C50.8088 22.9652 50.2073 21.6812 50.2073 20.3423C50.2073 19.0033 50.8088 17.7193 51.8796 16.7725C52.9504 15.8258 54.4027 15.2939 55.917 15.2939C57.4313 15.2939 58.8836 15.8258 59.9544 16.7725C61.0252 17.7193 61.6268 19.0033 61.6268 20.3423Z" fill="#0540F2" />
  <path d="M59.7235 35.4874C59.6851 36.8037 59.0666 38.0547 58 38.9737C56.9334 39.8927 55.503 40.407 54.0138 40.407C52.5245 40.407 51.0941 39.8927 50.0275 38.9737C48.9609 38.0547 48.3425 36.8037 48.304 35.4874C48.3425 34.171 48.9609 32.92 50.0275 32.001C51.0941 31.082 52.5245 30.5677 54.0138 30.5677C55.503 30.5677 56.9334 31.082 58 32.001C59.0666 32.92 59.6851 34.171 59.7235 35.4874Z" fill="#0540F2" />
</svg>