<svg width="70" height="78" viewBox="0 0 70 78" fill="none" xmlns="http://www.w3.org/2000/svg">
  <path d="M69.6037 29.8575C70.2493 38.445 67.1554 46.3358 61.7318 52.1592C55.6856 58.65 52.3565 67.0849 52.3565 75.8212C52.3565 76.6365 51.6739 77.2967 50.831 77.2967H24.6387C24.2341 77.2967 23.8461 77.1413 23.56 76.8645C23.2739 76.5878 23.1132 76.2125 23.1132 75.8212V69.0361C23.1133 68.5596 23.0163 68.0877 22.8279 67.6474C22.6394 67.2072 22.3632 66.8071 22.0148 66.4702C21.6665 66.1332 21.253 65.8659 20.7978 65.6835C20.3427 65.5011 19.8549 65.4073 19.3622 65.4073H12.5775C11.2767 65.4073 10.0292 64.9075 9.10936 64.0178C8.18954 63.1281 7.67279 61.9215 7.67279 60.6633V51.4759L4.01069 50.7704C3.68672 50.708 3.38018 50.5797 3.11141 50.3939C2.84265 50.2081 2.61781 49.9692 2.45183 49.693C2.28585 49.4167 2.18253 49.1095 2.14871 48.7916C2.1149 48.4738 2.15137 48.1527 2.25571 47.8495L7.09712 33.7758C7.43595 32.7918 7.65635 31.7713 7.70487 30.7348C8.49436 13.7267 23.9446 0.403924 42.1178 2.28832C57.0655 3.83863 68.5132 15.3558 69.6037 29.8575Z" fill="#0540F2" />
  <path d="M67.8429 28.1553C68.4885 36.742 65.3955 44.6328 59.971 50.4562C53.9248 56.947 50.5958 65.3819 50.5958 74.119C50.5958 74.9335 49.9132 75.5945 49.0702 75.5945H22.8771C22.6768 75.5945 22.4784 75.5563 22.2933 75.4822C22.1082 75.408 21.9401 75.2993 21.7984 75.1623C21.6567 75.0253 21.5444 74.8626 21.4677 74.6836C21.3911 74.5046 21.3516 74.3127 21.3516 74.119V67.3331C21.3518 66.8566 21.255 66.3847 21.0666 65.9444C20.8783 65.5041 20.6021 65.104 20.2538 64.7669C19.9056 64.4299 19.4921 64.1625 19.037 63.98C18.5819 63.7975 18.0941 63.7036 17.6015 63.7035H10.816C9.51514 63.7035 8.2676 63.2037 7.34779 62.314C6.42797 61.4243 5.91122 60.2177 5.91122 58.9595V49.7721L2.24912 49.0666C1.92515 49.0042 1.6186 48.8759 1.34984 48.6901C1.08107 48.5043 0.856238 48.2654 0.690258 47.9892C0.524278 47.7129 0.420952 47.4057 0.387139 47.0879C0.353325 46.77 0.389799 46.4489 0.494138 46.1457L5.33555 32.072C5.67437 31.0881 5.89477 30.0675 5.94329 29.031C6.73279 12.0229 22.183 -1.29987 40.3562 0.584525C55.3048 2.13563 66.7524 13.652 67.8429 28.1545V28.1553Z" fill="white" />
  <path d="M40.0174 4.22205C39.9959 4.22182 39.9745 4.22049 39.9532 4.21807C38.537 4.07136 37.1113 4.02802 35.6883 4.08842C35.3741 4.11785 35.0797 3.85615 35.0658 3.53797C35.0586 3.38538 35.1143 3.23628 35.2207 3.12339C35.3271 3.0105 35.4755 2.94304 35.6332 2.93582C37.1171 2.87256 38.6038 2.91777 40.0807 3.07105C40.2314 3.08818 40.3697 3.16018 40.4675 3.27241C40.5653 3.38465 40.6153 3.5287 40.6072 3.67528C40.5992 3.82186 40.5337 3.95997 40.4241 4.06153C40.3146 4.1631 40.1691 4.22049 40.0174 4.22205ZM18.8334 10.4949C18.7114 10.495 18.5922 10.459 18.492 10.3915C18.3918 10.3241 18.3155 10.2285 18.2732 10.1178C18.231 10.007 18.2249 9.88635 18.2558 9.77214C18.2867 9.65793 18.3531 9.55565 18.4461 9.47911C21.893 6.63886 25.9906 4.6346 30.3987 3.63263C30.5493 3.60646 30.7045 3.63721 30.8323 3.71852C30.9602 3.79983 31.0508 3.9255 31.0856 4.06959C31.1205 4.21369 31.0968 4.36522 31.0194 4.4929C30.9421 4.62059 30.8171 4.71469 30.6701 4.75579C26.4476 5.71566 22.5228 7.63598 19.2216 10.3573C19.1133 10.4465 18.9756 10.4953 18.8334 10.4949ZM9.91789 24.4191C9.82724 24.4192 9.73775 24.3994 9.65621 24.3611C9.57467 24.3228 9.50323 24.267 9.44734 24.198C9.39144 24.129 9.35254 24.0485 9.33362 23.9628C9.31469 23.877 9.31623 23.7883 9.33811 23.7032C10.3983 19.6044 12.4208 15.797 15.2486 12.5766C15.2994 12.5188 15.3614 12.4714 15.4311 12.4368C15.5009 12.4023 15.5769 12.3814 15.655 12.3753C15.7331 12.3692 15.8117 12.378 15.8862 12.4013C15.9608 12.4246 16.0298 12.4618 16.0895 12.5109C16.1492 12.56 16.1983 12.62 16.234 12.6875C16.2697 12.7549 16.2913 12.8285 16.2976 12.904C16.3039 12.9795 16.2948 13.0555 16.2707 13.1276C16.2466 13.1997 16.2081 13.2666 16.1574 13.3243C13.4489 16.4088 11.512 20.0556 10.4969 23.9816C10.4647 24.1064 10.3904 24.2173 10.2856 24.2966C10.1809 24.3758 10.0509 24.419 9.91789 24.4191ZM8.35453 33.6215C8.25999 33.6216 8.16678 33.6 8.08258 33.5585C7.99838 33.5169 7.9256 33.4566 7.87025 33.3825C7.8149 33.3083 7.77857 33.2225 7.76425 33.1322C7.74993 33.0418 7.75804 32.9494 7.7879 32.8627C8.22212 31.6003 8.47048 30.3491 8.52558 29.1424C8.52853 29.0666 8.54702 28.9921 8.57996 28.9233C8.6129 28.8545 8.65965 28.7927 8.71749 28.7415C8.77533 28.6903 8.84311 28.6507 8.91689 28.625C8.99068 28.5993 9.069 28.5881 9.14731 28.5919C9.47627 28.6063 9.73121 28.8751 9.7164 29.1941C9.65719 30.5066 9.38909 31.8628 8.92033 33.227C8.88078 33.3419 8.80485 33.4418 8.7033 33.5126C8.60175 33.5834 8.47972 33.6215 8.35453 33.6215ZM5.26892 42.5893C5.17439 42.5894 5.08117 42.5678 4.99697 42.5263C4.91277 42.4847 4.83999 42.4244 4.78465 42.3503C4.7293 42.2761 4.69297 42.1903 4.67865 42.1C4.66433 42.0096 4.67243 41.9172 4.70229 41.8304L6.58803 36.3499C6.63798 36.2046 6.74554 36.0845 6.88704 36.016C7.02854 35.9474 7.19241 35.9361 7.34257 35.9844C7.49274 36.0327 7.61692 36.1367 7.68779 36.2736C7.75866 36.4104 7.77041 36.5689 7.72046 36.7142L5.83555 42.1948C5.79596 42.3098 5.7199 42.4098 5.61818 42.4806C5.51646 42.5515 5.39425 42.5895 5.26892 42.5893Z" fill="#ECECEC" />
  <path d="M59.9719 50.4555C53.9304 56.9515 50.59 65.3814 50.595 74.119C50.595 74.5263 50.4272 74.8961 50.1492 75.165C49.8605 75.4394 49.4726 75.5941 49.0678 75.5961H22.8763C22.4714 75.5959 22.0832 75.4402 21.797 75.1632C21.5107 74.8862 21.35 74.5106 21.35 74.119V72.6649H46.0455C46.4666 72.6649 46.8408 72.5035 47.1187 72.2338C47.4025 71.9546 47.5624 71.5793 47.5645 71.1878C47.5595 62.4505 50.8999 54.0209 56.9414 47.5251C62.3658 41.7008 65.4597 33.8156 64.8157 25.2233C64.3058 18.5074 61.578 12.4223 57.2909 7.6759C63.2968 12.6991 67.2253 19.9535 67.8454 28.1545C68.4902 36.7397 65.3963 44.632 59.9719 50.4555Z" fill="#E8E8E8" />
  <path d="M57.2843 26.4673C57.3037 26.9956 57.2129 27.5222 57.0173 28.0157C56.8216 28.5093 56.5252 28.9596 56.1456 29.3399C55.766 29.7202 55.3111 30.0226 54.808 30.229C54.305 30.4355 53.764 30.5418 53.2175 30.5416C52.471 30.5403 51.7391 30.3413 51.1012 29.9662C50.4634 29.5911 49.9438 29.0542 49.599 28.4138C49.5615 28.3402 49.5037 28.2781 49.432 28.2341C49.3604 28.1902 49.2776 28.1662 49.1928 28.1648C49.0711 28.165 48.9545 28.2118 48.8685 28.295C48.7825 28.3782 48.7341 28.491 48.7339 28.6086V34.4488C48.7337 35.1054 48.4639 35.7351 47.9838 36.1995C47.5037 36.6638 46.8527 36.9248 46.1738 36.925H40.1325C40.011 36.9252 39.8945 36.9719 39.8085 37.0549C39.7226 37.1379 39.674 37.2505 39.6736 37.368V37.3728C39.6736 37.5398 39.7772 37.6894 39.931 37.7665C40.7504 38.1782 41.401 38.8467 41.7762 39.6628C42.1514 40.4788 42.229 41.3938 41.9962 42.2581C41.7634 43.1223 41.2341 43.8844 40.4949 44.4196C39.7557 44.9548 38.8506 45.2313 37.9277 45.2039C35.7656 45.1363 33.9876 43.3617 33.9876 41.2705C33.9871 40.5465 34.1924 39.8363 34.5812 39.2177C34.9699 38.599 35.527 38.0956 36.1916 37.7626C36.2679 37.7261 36.3323 37.67 36.3777 37.6003C36.4232 37.5307 36.4478 37.4503 36.449 37.368C36.4486 37.2506 36.4002 37.1382 36.3144 37.0552C36.2286 36.9722 36.1123 36.9254 35.9909 36.925H29.9488C29.2699 36.9248 28.6189 36.6638 28.1388 36.1995C27.6588 35.7351 27.389 35.1054 27.3887 34.4488V28.6086C27.3885 28.491 27.3401 28.3782 27.2541 28.295C27.1681 28.2118 27.0515 28.165 26.9299 28.1648C26.8434 28.1655 26.7589 28.1898 26.686 28.2348C26.6132 28.2798 26.5549 28.3438 26.5178 28.4193C26.1737 29.0587 25.655 29.5946 25.018 29.9687C24.3811 30.3429 23.6503 30.541 22.9051 30.5416C22.3585 30.5419 21.8175 30.4357 21.3143 30.2293C20.8111 30.0229 20.3561 29.7205 19.9765 29.3402C19.5968 28.9599 19.3003 28.5095 19.1046 28.0159C18.9089 27.5223 18.8181 26.9956 18.8375 26.4673C18.9083 24.3809 20.7373 22.6699 22.8952 22.6651C23.642 22.6622 24.3751 22.859 25.0137 23.2336C25.6522 23.6082 26.1713 24.1462 26.5137 24.7881C26.5976 24.9425 26.7522 25.0419 26.9299 25.0419C27.1823 25.0419 27.3887 24.843 27.3887 24.598V18.7587C27.3876 18.1242 27.6393 17.5137 28.0916 17.0541C28.544 16.5946 29.162 16.3213 29.8173 16.2913C29.8592 16.296 29.9061 16.296 29.9488 16.296H35.9909C36.0944 16.2954 36.1949 16.3289 36.2761 16.3909C36.3573 16.4529 36.4142 16.5398 36.4376 16.6372C36.4609 16.7347 36.4493 16.8369 36.4046 16.9271C36.3599 17.0174 36.2848 17.0902 36.1916 17.1336C35.5272 17.4657 34.9701 17.9681 34.5814 18.586C34.1926 19.2039 33.9872 19.9134 33.9876 20.6367C33.9876 22.7327 35.7656 24.5074 37.9285 24.571C38.4742 24.5883 39.0179 24.4992 39.5272 24.309C40.0366 24.1188 40.5011 23.8314 40.8933 23.464C41.2854 23.0965 41.597 22.6565 41.8096 22.1701C42.0223 21.6837 42.1315 21.1609 42.1309 20.6328C42.1322 19.9108 41.9276 19.2025 41.5394 18.5858C41.1513 17.9691 40.5947 17.468 39.931 17.1376C39.8543 17.1008 39.7897 17.0441 39.7443 16.9739C39.6988 16.9037 39.6744 16.8227 39.6736 16.7399V16.7351C39.6736 16.4901 39.8792 16.296 40.1325 16.296H46.1746C46.2165 16.296 46.2634 16.296 46.3062 16.2913C46.9614 16.3213 47.5795 16.5946 48.0318 17.0541C48.4841 17.5137 48.7359 18.1242 48.7347 18.7587V24.598C48.7347 24.8422 48.9403 25.0419 49.1936 25.0419C49.3663 25.0419 49.5209 24.9425 49.6007 24.7929C49.9444 24.1508 50.4643 23.6126 51.1033 23.2373C51.7423 22.862 52.4757 22.664 53.2233 22.6651C55.3854 22.6699 57.2152 24.3809 57.2859 26.4673H57.2843Z" fill="#0540F2" />
</svg>