<svg width="72" height="65" viewBox="0 0 72 65" fill="none" xmlns="http://www.w3.org/2000/svg">
  <path d="M64.7721 37.5422V49.9377C64.7721 51.0773 62.1835 51.9943 60.9158 51.9943C59.6508 51.9943 56.766 51.0773 56.766 49.9377V37.5422C56.766 37.5422 58.6074 36.3576 60.9158 37.5422C63.2296 38.7268 64.7721 37.5422 64.7721 37.5422Z" fill="white" />
  <path d="M16.7352 44.5505C23.5976 42.6633 25.8851 46.4377 32.7475 44.5505C32.7475 53.6532 25.606 60.9815 16.7352 60.9815C7.86436 60.9815 0.72287 53.6532 0.72287 44.5505C7.58529 46.8978 9.87277 46.8978 16.7352 44.5505Z" fill="white" />
  <path d="M66.7197 27.702C68.6783 27.702 70.2551 29.2777 70.2551 31.2296V57.0992C70.2551 59.0535 68.6783 60.6268 66.7197 60.6268H17.2238" stroke="white" stroke-width="2" stroke-linecap="round" stroke-linejoin="round" />
  <path d="M26.6516 61.8027H31.3655" stroke="white" />
  <path d="M27.8301 63.9772H30.187" stroke="white" stroke-width="2" stroke-linecap="round" stroke-linejoin="round" />
  <path d="M57.2919 61.8027H62.0058" stroke="white" />
  <path d="M58.4704 63.9772H60.8273" stroke="white" stroke-width="2" stroke-linecap="round" stroke-linejoin="round" />
  <path d="M46.7583 37.5773V50.7992C46.7583 52.0147 43.846 52.9929 42.4199 52.9929C40.9968 52.9929 37.7513 52.0147 37.7513 50.7992V37.5773C37.7513 37.5773 39.8229 36.3137 42.4199 37.5773C45.0199 38.8409 46.7583 37.5773 46.7583 37.5773Z" fill="white" />
  <path d="M20.5822 22.0371V29.8828C20.5822 30.5765 21.3788 30.6824 21.8903 30.8235C25.345 31.9756 28.2762 34.3161 30.1598 37.427C32.0434 40.5378 32.7564 44.216 32.1713 47.8033C31.59 51.3906 29.7475 54.6541 26.9739 57.0091C24.2003 59.3642 20.6769 60.657 17.035 60.6557C13.3933 60.6521 9.87202 59.3544 7.1022 56.9954C4.33238 54.6363 2.49517 51.3701 1.91988 47.782C1.33914 44.1935 2.05695 40.516 3.94489 37.4072C5.83282 34.2984 8.7677 31.9614 12.2245 30.8141C12.7854 30.6189 13.6386 30.4237 13.5113 29.8828V22.0371M46.511 22.4324V48.2264C46.5166 48.8488 46.3989 49.4662 46.1648 50.0431C45.9307 50.62 45.5848 51.145 45.1468 51.5882C44.7088 52.0313 44.1875 52.3838 43.6126 52.6254C43.0378 52.867 42.4208 52.993 41.7971 52.996C39.1856 52.996 37.0832 50.8698 37.0832 48.2264V22.437" stroke="white" stroke-width="2" stroke-linecap="square" />
  <path d="M34.9175 22.4105H49.0002M11.3834 20.0587H23.0668" stroke="white" stroke-width="2" stroke-linecap="round" stroke-linejoin="round" />
  <path d="M65.5012 22.4105V48.2045C65.5068 48.8268 65.3892 49.4443 65.1551 50.0211C64.921 50.598 64.575 51.1231 64.1371 51.5662C63.6991 52.0093 63.1777 52.3619 62.6029 52.6034C62.0281 52.845 61.4111 52.971 60.7874 52.9741C58.1759 52.9741 56.0735 50.8479 56.0735 48.2045V22.4151" stroke="white" stroke-width="2" stroke-linecap="square" />
  <path d="M53.7708 22.4105H67.8535" stroke="white" stroke-width="2" stroke-linecap="round" stroke-linejoin="round" />
  <path d="M47.8641 27.702H54.935M36.0794 27.702H21.9377" stroke="white" stroke-width="2" />
  <path d="M12.5076 14.1793C13.8093 14.1793 14.8645 13.1263 14.8645 11.8275C14.8645 10.5286 13.8093 9.47571 12.5076 9.47571C11.2059 9.47571 10.1506 10.5286 10.1506 11.8275C10.1506 13.1263 11.2059 14.1793 12.5076 14.1793Z" fill="white" />
  <path d="M23.1162 7.12395C25.0687 7.12395 26.6516 5.54456 26.6516 3.59629C26.6516 1.64801 25.0687 0.0684814 23.1162 0.0684814C21.1636 0.0684814 19.5807 1.64801 19.5807 3.59629C19.5807 5.54456 21.1636 7.12395 23.1162 7.12395Z" fill="white" />
  <path d="M18.4 35.3453C19.0508 35.3453 19.5784 34.8188 19.5784 34.1694C19.5784 33.52 19.0508 32.9935 18.4 32.9935C17.7491 32.9935 17.2215 33.52 17.2215 34.1694C17.2215 34.8188 17.7491 35.3453 18.4 35.3453Z" fill="white" />
  <path d="M13.0968 41.2247C14.0731 41.2247 14.8646 40.435 14.8646 39.4609C14.8646 38.4867 14.0731 37.697 13.0968 37.697C12.1206 37.697 11.3291 38.4867 11.3291 39.4609C11.3291 40.435 12.1206 41.2247 13.0968 41.2247Z" fill="white" />
</svg>