<svg width="65" height="65" viewBox="0 0 65 65" fill="none" xmlns="http://www.w3.org/2000/svg">
  <path d="M64.5302 27.4852V36.9278L57.5932 37.6057C56.9075 40.6677 55.6745 43.581 53.9536 46.2055L58.4337 51.6047L51.7533 58.2652L46.35 53.7885C43.7282 55.524 40.8039 56.7526 37.7288 57.4106L37.0504 64.413H27.5887L26.9103 57.4106C23.8403 56.7366 20.9188 55.5092 18.2891 53.7885L12.8858 58.2652L6.20536 51.6047L10.6855 46.2055C8.94691 43.5904 7.71254 40.6738 7.04595 37.6057L0.0292664 36.9278V27.4852L7.04595 26.8073C7.73345 23.745 8.96625 20.8311 10.6855 18.2046L6.20536 12.8054L12.8858 6.14482L18.2891 10.6215C20.9125 8.889 23.8362 7.66064 26.9103 6.99949L27.5887 0H37.0504L37.7288 6.99949C40.7984 7.67481 43.7197 8.90211 46.35 10.6215L51.7533 6.14482L58.3541 12.8054L53.8739 18.2046C55.6117 20.8208 56.8451 23.7385 57.5106 26.8073L64.5302 27.4852ZM48.0577 32.2065C48.0626 29.0884 47.1418 26.0388 45.4117 23.4438C43.6816 20.8488 41.22 18.8249 38.3384 17.6283C35.4568 16.4316 32.2847 16.116 29.2235 16.7214C26.1623 17.3268 23.3497 18.826 21.1415 21.0292C18.9333 23.2324 17.4288 26.0406 16.8183 29.0985C16.2079 32.1564 16.519 35.3265 17.7122 38.2077C18.9054 41.0889 20.9272 43.5517 23.5216 45.2843C26.1161 47.017 29.1666 47.9417 32.2871 47.9414C36.4664 47.9439 40.4757 46.2878 43.4331 43.337C46.3905 40.3863 48.054 36.3826 48.0577 32.2065Z" fill="white" />
</svg>