<svg width="28" height="28" viewBox="0 0 28 28" fill="none" xmlns="http://www.w3.org/2000/svg">
<path d="M24.5 5.83366C24.5 5.18933 23.9777 4.66699 23.3333 4.66699H4.66667C4.02234 4.66699 3.5 5.18933 3.5 5.83366C3.5 6.47799 4.02234 7.00033 4.66667 7.00033H23.3333C23.9777 7.00033 24.5 6.47799 24.5 5.83366Z" fill="#18191A"/>
<path d="M24.5 14.0003C24.5 13.356 23.9777 12.8337 23.3333 12.8337H4.66667C4.02234 12.8337 3.5 13.356 3.5 14.0003C3.5 14.6447 4.02234 15.167 4.66667 15.167H23.3333C23.9777 15.167 24.5 14.6447 24.5 14.0003Z" fill="#18191A"/>
<path d="M23.3333 21.0003C23.9777 21.0003 24.5 21.5227 24.5 22.167C24.5 22.8113 23.9777 23.3337 23.3333 23.3337H4.66667C4.02234 23.3337 3.5 22.8113 3.5 22.167C3.5 21.5227 4.02234 21.0003 4.66667 21.0003H23.3333Z" fill="#18191A"/>
</svg>
